<?xml version="1.0" encoding="UTF-8"?>
<svg width="20px" height="22px" viewBox="0 0 20 22" version="1.1" xmlns="http://www.w3.org/2000/svg" xmlns:xlink="http://www.w3.org/1999/xlink">
    <!-- Generator: Sketch 55.2 (78181) - https://sketchapp.com -->
    <title>小徽章_行_亮</title>
    <desc>Created with Sketch.</desc>
    <defs>
        <linearGradient x1="50%" y1="0%" x2="50%" y2="100%" id="linearGradient-1">
            <stop stop-color="#FF8E58" offset="0%"></stop>
            <stop stop-color="#F95151" offset="100%"></stop>
        </linearGradient>
        <polygon id="path-2" points="9.5 1 17.7272413 5.75 17.7272413 15.25 9.5 20 1.27275866 15.25 1.27275866 5.75"></polygon>
        <filter x="1.4%" y="-5.3%" width="97.1%" height="110.5%" filterUnits="objectBoundingBox" id="filter-3">
            <feGaussianBlur stdDeviation="0.5" in="SourceAlpha" result="shadowBlurInner1"></feGaussianBlur>
            <feOffset dx="0" dy="1" in="shadowBlurInner1" result="shadowOffsetInner1"></feOffset>
            <feComposite in="shadowOffsetInner1" in2="SourceAlpha" operator="arithmetic" k2="-1" k3="1" result="shadowInnerInner1"></feComposite>
            <feColorMatrix values="0 0 0 0 0.827841938   0 0 0 0 0.0938578417   0 0 0 0 0.0938578417  0 0 0 0.755217439 0" type="matrix" in="shadowInnerInner1"></feColorMatrix>
        </filter>
        <linearGradient x1="53.4822431%" y1="103.808534%" x2="53.4822431%" y2="0%" id="linearGradient-4">
            <stop stop-color="#FFC05C" offset="0%"></stop>
            <stop stop-color="#FFF6CF" offset="100%"></stop>
        </linearGradient>
        <linearGradient x1="50%" y1="19.5697072%" x2="50%" y2="116.564823%" id="linearGradient-5">
            <stop stop-color="#FFFFFF" offset="0%"></stop>
            <stop stop-color="#FFD58E" offset="100%"></stop>
        </linearGradient>
        <path d="M13.9212715,7.1480776 C13.904085,7.26869238 13.8353402,7.37207492 13.7150351,7.45822833 C13.5947299,7.54438174 13.3756059,7.5874578 13.0576566,7.5874578 L12.4905065,7.5874578 C12.2842691,7.5874578 12.080183,7.58530399 11.8782422,7.58099632 C11.6763014,7.57668865 11.485105,7.57453485 11.3046472,7.57453485 L10.8663949,7.57453485 C10.7804626,7.57453485 10.6794937,7.57884245 10.5634852,7.5874578 C10.4474766,7.59607314 10.3314698,7.60899595 10.2154613,7.62622664 C10.0994527,7.64345732 9.98774245,7.66068774 9.88032712,7.67791842 C9.7729118,7.69514911 9.680536,7.71668713 9.60319697,7.74253316 C9.49148503,7.78560986 9.38836786,7.79207127 9.29384238,7.76191758 C9.19931689,7.73176388 9.12412729,7.68222642 9.06827132,7.61330369 C9.01241535,7.54438096 8.98233951,7.46253645 8.9780429,7.3677677 C8.97374628,7.27299895 9.01026695,7.17823162 9.08760598,7.08346287 C9.11338566,7.0490015 9.16494424,7.00592545 9.24228328,6.9542334 C9.31962231,6.90254135 9.40770156,6.85300389 9.50652366,6.80561951 C9.60534576,6.75823514 9.69772155,6.71946668 9.78365381,6.68931299 C9.86958607,6.6591593 9.9340343,6.64839028 9.97700043,6.65700562 C10.0199666,6.66562096 10.1058975,6.68500519 10.2347959,6.71515888 C10.3636943,6.74531258 10.4668115,6.75608159 10.5441505,6.74746625 C10.6128963,6.73885091 10.7396445,6.7345433 10.9243989,6.7345433 C11.1091532,6.7345433 11.334722,6.73885091 11.601112,6.74746625 C11.867502,6.75608159 12.1661122,6.76900441 12.4969514,6.78623509 C12.8277906,6.80346577 13.1736627,6.8250038 13.5345782,6.85084983 C13.6978495,6.86808051 13.8074115,6.89607995 13.8632675,6.93484898 C13.9191235,6.97361801 13.9384579,7.04469351 13.9212715,7.1480776 Z M7.90174672,6.81208098 C7.83300091,7.01023383 7.68476998,7.2105375 7.45704949,7.41299801 C7.229329,7.61545853 6.98227746,7.80068558 6.71588745,7.96868473 C6.44949744,8.13668388 6.1938528,8.27237346 5.94894586,8.37575755 C5.70403892,8.47914165 5.5300287,8.5222177 5.42690999,8.50498702 C5.22926579,8.479141 5.07459004,8.4059117 4.9628781,8.28529693 C4.85116616,8.16468215 4.76093864,7.99237792 4.69219283,7.76837905 C4.65781993,7.68222564 4.65352338,7.61976536 4.67930306,7.58099632 C4.70508273,7.54222729 4.77812406,7.50992024 4.89842923,7.48407422 C5.01873439,7.4582282 5.15622394,7.41945975 5.31090201,7.3677677 C5.46558008,7.31607565 5.6481834,7.25146157 5.85871744,7.1739235 C6.06925147,7.09638543 6.31845129,6.99731049 6.60632436,6.87669572 C6.89419744,6.75608095 7.2314765,6.60962235 7.61817167,6.43731553 C7.73847684,6.38562348 7.82870436,6.39208489 7.88885694,6.45669995 C7.94900952,6.521315 7.95330607,6.63977417 7.90174672,6.81208098 Z M8.00486491,8.63421649 C7.96189878,8.70313922 7.92322984,8.7634457 7.88885694,8.81513775 C7.85448404,8.86682979 7.81796337,8.91852106 7.77929386,8.97021311 C7.74062434,9.02190515 7.6933623,9.08221164 7.63750634,9.15113436 C7.58165037,9.22005709 7.51075731,9.30620921 7.42482505,9.4095933 C7.36467247,9.47851603 7.31741044,9.53882251 7.28303753,9.59051456 C7.24866463,9.6422066 7.22718189,9.7154359 7.21858866,9.81020465 C7.20999543,9.98251147 7.20355061,10.1849689 7.199254,10.4175832 C7.19495738,10.6501974 7.19280911,10.8871157 7.19280911,11.1283452 C7.19280911,11.3695748 7.19495738,11.6086469 7.199254,11.8455688 C7.20355061,12.0824907 7.20569889,12.2957172 7.20569889,12.4852547 C7.20569889,12.7867916 7.20355061,13.0237099 7.199254,13.1960167 C7.19495738,13.3683235 7.17347464,13.5018593 7.13480512,13.5966281 C7.09613561,13.6913968 7.03168738,13.7603185 6.94145851,13.8033952 C6.85122963,13.8464719 6.7201849,13.8852404 6.54832038,13.9197018 C6.29911682,13.9713938 6.13155143,13.9024721 6.04561917,13.7129346 C5.95968691,13.5233971 5.93390762,13.1830962 5.96828052,12.6920218 C5.9940602,12.3043315 6.01339467,11.9618768 6.02628451,11.6646475 C6.03917434,11.3674183 6.04561917,11.0809625 6.04561917,10.8052716 C6.04561917,10.7105028 6.03058125,10.6566577 6.00050496,10.6437347 C5.97042867,10.6308117 5.92101836,10.6458883 5.85227255,10.688965 C5.62884867,10.8095798 5.41616952,10.9065009 5.2142287,10.9797313 C5.01228789,11.0529617 4.83827767,11.093884 4.69219283,11.1024993 C4.58907412,11.1024993 4.47736386,11.0766537 4.35705869,11.0249617 C4.23675353,10.9732696 4.12289499,10.9043479 4.01547966,10.8181945 C3.90806434,10.7320411 3.81354027,10.6372738 3.73190462,10.5338897 C3.65026897,10.4305056 3.59226557,10.3314307 3.55789266,10.2366619 C3.53211298,10.1677392 3.52781644,10.1203555 3.54500289,10.0945095 C3.56218934,10.0686635 3.61374792,10.0471254 3.69968018,10.0298948 C3.91451084,9.99543339 4.19593477,9.91358887 4.54396042,9.78435876 C4.89198608,9.65512865 5.25504443,9.50005483 5.63314638,9.31913267 C6.01124833,9.13821051 6.37430668,8.94652205 6.72233234,8.74406154 C7.07035799,8.54160103 7.34748537,8.34991256 7.5537228,8.1689904 C7.65684151,8.08283699 7.75136558,8.03545333 7.83729784,8.02683799 C7.9232301,8.01822265 7.98982661,8.03976068 8.03708935,8.09145272 C8.08435209,8.14314477 8.10798311,8.21852787 8.10798311,8.31760429 C8.10798311,8.41668071 8.07361072,8.52221706 8.00486491,8.63421649 Z M15.8289581,8.94436722 C15.6141275,9.31482688 15.3670759,9.56036041 15.0877961,9.68097519 C14.8085162,9.80158996 14.5184992,9.81882038 14.2177363,9.73266697 C14.0372785,9.68097493 13.8460821,9.63574507 13.6441413,9.59697603 C13.4422005,9.558207 13.2510041,9.52159235 13.0705463,9.48713098 C12.9674276,9.47851564 12.915869,9.5215917 12.915869,9.61636045 C12.915869,9.90928204 12.9137208,10.172046 12.9094242,10.4046602 C12.9051275,10.6372744 12.9051275,10.8634237 12.9094242,11.0831149 C12.9137208,11.3028061 12.9180173,11.5311092 12.9223139,11.7680311 C12.9266105,12.004953 12.9330554,12.2741783 12.9416486,12.5757153 C12.9588351,13.0150977 12.825642,13.3575523 12.5420656,13.6030896 C12.2584891,13.8486268 11.8331308,13.9800088 11.2659779,13.9972394 C11.0855201,14.0058548 10.9007686,13.9692401 10.7117176,13.8873944 C10.5226666,13.8055486 10.3465081,13.7021661 10.1832368,13.5772437 C10.0199655,13.4523212 9.87388288,13.3144778 9.74498449,13.1637094 C9.6160861,13.0129409 9.52156203,12.8686361 9.46140945,12.7307906 C9.41844332,12.6360219 9.41199849,12.5671002 9.44207478,12.5240235 C9.47215108,12.4809468 9.54734068,12.4938696 9.66764584,12.5627923 C9.79654423,12.6317151 9.93833033,12.6855601 10.0930084,12.7243292 C10.2476865,12.7630982 10.4002139,12.7889438 10.5505954,12.8018668 C10.7009769,12.8147899 10.8363181,12.8104823 10.9566233,12.7889439 C11.0769285,12.7674056 11.1714525,12.7350985 11.2401983,12.6920218 C11.3605035,12.6058684 11.4464345,12.4852554 11.4979938,12.3301793 C11.5495532,12.1751032 11.5839256,11.9166468 11.601112,11.5548025 C11.6182985,11.2015735 11.6311881,10.846196 11.6397814,10.4886594 C11.6483746,10.1311227 11.644078,9.78005283 11.6268916,9.4354392 C11.6268916,9.35790113 11.5839261,9.31913267 11.4979938,9.31913267 C11.1027054,9.29328665 10.7374988,9.30620947 10.402363,9.35790151 C10.1016001,9.40097822 9.82876925,9.44620808 9.58386231,9.49359246 C9.33895536,9.54097683 9.08331072,9.61635993 8.81692071,9.71974403 C8.68802232,9.77143607 8.57201551,9.7929741 8.4688968,9.78435876 C8.36577809,9.77574342 8.28414366,9.74559018 8.22399108,9.69389813 C8.1638385,9.64220609 8.12946611,9.5754382 8.12087288,9.49359246 C8.11227966,9.41174672 8.13805895,9.3234408 8.19821153,9.22867205 C8.30133024,9.04774989 8.39585431,8.90344509 8.48178657,8.79575333 C8.56771883,8.68806156 8.64505671,8.60837086 8.71380252,8.55667881 C8.78254833,8.50498676 8.84914483,8.47483352 8.91359402,8.46621818 C8.97804322,8.45760284 9.04463972,8.46621805 9.11338553,8.49206408 C9.16494489,8.50929476 9.25517241,8.52437138 9.3840708,8.53729439 C9.51296919,8.5502174 9.59890016,8.55667881 9.64186629,8.55667881 L10.9630682,8.55667881 C11.2681277,8.55667881 11.5882206,8.55883261 11.9233564,8.56314028 C12.2584922,8.56744795 12.5742885,8.56960176 12.8707548,8.56960176 L14.1146181,8.56960176 C14.3981945,8.56960176 14.6774702,8.57390936 14.9524534,8.5825247 C15.2274367,8.59114004 15.4852296,8.59975526 15.7258399,8.6083706 C15.8289586,8.6083706 15.8912586,8.63206243 15.9127417,8.6794468 C15.9342247,8.72683118 15.9062972,8.8151371 15.8289581,8.94436722 Z" id="path-6"></path>
        <filter x="-2.4%" y="-3.9%" width="104.8%" height="115.8%" filterUnits="objectBoundingBox" id="filter-7">
            <feOffset dx="0" dy="0.6" in="SourceAlpha" result="shadowOffsetOuter1"></feOffset>
            <feColorMatrix values="0 0 0 0 0.878368433   0 0 0 0 0.126717367   0 0 0 0 0.126717367  0 0 0 1 0" type="matrix" in="shadowOffsetOuter1"></feColorMatrix>
        </filter>
    </defs>
    <g id="小徽章_行_亮" stroke="none" stroke-width="1" fill="none" fill-rule="evenodd">
        <g id="编组-16" transform="translate(0.500000, 0.000000)">
            <path d="M9.25,1.5669873 C9.40470054,1.4776709 9.59529946,1.4776709 9.75,1.5669873 L17.9772413,6.3169873 C18.1319419,6.4063037 18.2272413,6.57136721 18.2272413,6.75 L18.2272413,16.25 C18.2272413,16.4286328 18.1319419,16.5936963 17.9772413,16.6830127 L9.75,21.4330127 C9.59529946,21.5223291 9.40470054,21.5223291 9.25,21.4330127 L1.02275866,16.6830127 C0.868058126,16.5936963 0.772758664,16.4286328 0.772758664,16.25 L0.772758664,6.75 C0.772758664,6.57136721 0.868058126,6.4063037 1.02275866,6.3169873 L9.25,1.5669873 Z M9.5,2.57735027 L1.77275866,7.03867513 L1.77275866,15.9613249 L9.5,20.4226497 L17.2272413,15.9613249 L17.2272413,7.03867513 L9.5,2.57735027 Z" id="多边形" fill-opacity="0.068758" fill="#000000" fill-rule="nonzero"></path>
            <g id="多边形">
                <use fill="url(#linearGradient-1)" fill-rule="evenodd" xlink:href="#path-2"></use>
                <use fill="black" fill-opacity="1" filter="url(#filter-3)" xlink:href="#path-2"></use>
            </g>
            <path d="M9.25,0.566987298 C9.40470054,0.477670901 9.59529946,0.477670901 9.75,0.566987298 L17.9772413,5.3169873 C18.1319419,5.4063037 18.2272413,5.57136721 18.2272413,5.75 L18.2272413,15.25 C18.2272413,15.4286328 18.1319419,15.5936963 17.9772413,15.6830127 L9.75,20.4330127 C9.59529946,20.5223291 9.40470054,20.5223291 9.25,20.4330127 L1.02275866,15.6830127 C0.868058126,15.5936963 0.772758664,15.4286328 0.772758664,15.25 L0.772758664,5.75 C0.772758664,5.57136721 0.868058126,5.4063037 1.02275866,5.3169873 L9.25,0.566987298 Z M9.5,1.57735027 L1.77275866,6.03867513 L1.77275866,14.9613249 L9.5,19.4226497 L17.2272413,14.9613249 L17.2272413,6.03867513 L9.5,1.57735027 Z" id="多边形" fill="url(#linearGradient-4)" fill-rule="nonzero"></path>
            <g id="行" fill-rule="nonzero" transform="translate(9.727219, 10.200662) rotate(-1.000000) translate(-9.727219, -10.200662) ">
                <use fill="black" fill-opacity="1" filter="url(#filter-7)" xlink:href="#path-6"></use>
                <use fill="url(#linearGradient-5)" xlink:href="#path-6"></use>
            </g>
        </g>
    </g>
</svg>