<?xml version="1.0" encoding="UTF-8"?>
<svg width="20px" height="22px" viewBox="0 0 20 22" version="1.1" xmlns="http://www.w3.org/2000/svg" xmlns:xlink="http://www.w3.org/1999/xlink">
    <!-- Generator: Sketch 55.2 (78181) - https://sketchapp.com -->
    <title>小徽章_知_亮</title>
    <desc>Created with Sketch.</desc>
    <defs>
        <linearGradient x1="50%" y1="0%" x2="50%" y2="100%" id="linearGradient-1">
            <stop stop-color="#FEC057" offset="0%"></stop>
            <stop stop-color="#FF821E" offset="100%"></stop>
        </linearGradient>
        <polygon id="path-2" points="9.5 1 17.7272413 5.75 17.7272413 15.25 9.5 20 1.27275866 15.25 1.27275866 5.75"></polygon>
        <filter x="1.4%" y="-5.3%" width="97.1%" height="110.5%" filterUnits="objectBoundingBox" id="filter-3">
            <feGaussianBlur stdDeviation="0.5" in="SourceAlpha" result="shadowBlurInner1"></feGaussianBlur>
            <feOffset dx="0" dy="1" in="shadowBlurInner1" result="shadowOffsetInner1"></feOffset>
            <feComposite in="shadowOffsetInner1" in2="SourceAlpha" operator="arithmetic" k2="-1" k3="1" result="shadowInnerInner1"></feComposite>
            <feColorMatrix values="0 0 0 0 0.849014946   0 0 0 0 0.168929384   0 0 0 0 0.168929384  0 0 0 0.755217439 0" type="matrix" in="shadowInnerInner1"></feColorMatrix>
        </filter>
        <linearGradient x1="53.4822431%" y1="103.808534%" x2="53.4822431%" y2="0%" id="linearGradient-4">
            <stop stop-color="#FFC05C" offset="0%"></stop>
            <stop stop-color="#FFF6CF" offset="100%"></stop>
        </linearGradient>
        <linearGradient x1="50%" y1="37.5357556%" x2="50%" y2="143.386957%" id="linearGradient-5">
            <stop stop-color="#FFFFFF" offset="0%"></stop>
            <stop stop-color="#FFD58E" offset="100%"></stop>
        </linearGradient>
        <path d="M10.721189,9.89411125 C10.721189,9.99124802 10.7057097,10.0640995 10.6747505,10.1126679 C10.6437913,10.1612363 10.5796625,10.1987658 10.4823622,10.2252577 C10.3762165,10.2605801 10.1462374,10.2892792 9.79241811,10.3113557 C9.43859884,10.3334323 9.03613546,10.3268094 8.5850159,10.291487 C8.46117915,10.291487 8.38599368,10.3533003 8.35945724,10.476929 C8.34176628,10.5564045 8.35282296,10.6182179 8.39262763,10.6623709 C8.4324323,10.706524 8.47444771,10.7330155 8.51867511,10.7418461 C8.63366638,10.7683379 8.76192394,10.8743037 8.90345164,11.0597466 C9.02728839,11.2186977 9.16217996,11.3644007 9.30813041,11.4968599 C9.45408086,11.6293192 9.64204452,11.7794374 9.87202705,11.9472191 C10.146237,12.1414926 10.356314,12.3114794 10.5022645,12.4571845 C10.6482149,12.6028897 10.7455138,12.7309317 10.7941639,12.8413144 C10.8428141,12.9516971 10.8472367,13.0422095 10.8074321,13.1128545 C10.7676274,13.1834994 10.7034986,13.2453128 10.6150438,13.2982964 C10.4646706,13.377772 10.2568049,13.3203738 9.99144045,13.1261003 C9.84106727,13.0024717 9.69954168,12.889883 9.56685946,12.788331 C9.43417723,12.6867789 9.29707432,12.587436 9.15554661,12.4902992 C9.01401891,12.3931624 8.86585931,12.2916119 8.71106338,12.1856445 C8.55626745,12.0796771 8.37714913,11.9604656 8.17370305,11.8280063 C8.12947564,11.8015145 8.07861489,11.7948916 8.02111926,11.8081376 C7.96362363,11.8213835 7.92603089,11.8412521 7.90833993,11.8677439 C7.65182096,12.3534278 7.31790903,12.7552147 6.90659413,13.0731169 C6.49527923,13.391019 6.07512516,13.6206116 5.64611929,13.7619014 C5.21711343,13.9031913 4.80801604,13.9539666 4.41881484,13.9142288 C4.02961365,13.874491 3.72887178,13.7398262 3.51658022,13.5102302 C3.33967059,13.3336179 3.24679442,13.1746692 3.23794894,13.0333793 C3.22910346,12.8920895 3.28659823,12.8258608 3.41043497,12.8346915 C3.73771779,12.8435221 4.06499571,12.8214459 4.39227853,12.7684622 C4.71956135,12.7154785 5.02251456,12.6382118 5.30114723,12.5366597 C5.57977991,12.4351076 5.83187235,12.3158961 6.05743214,12.1790215 C6.28299192,12.042147 6.46211024,11.8942364 6.59479246,11.7352853 C6.73632017,11.5675037 6.85352104,11.3688178 6.9463986,11.1392218 C7.03927616,10.9096258 7.11667296,10.6623723 7.17859134,10.3974538 C7.20512778,10.2738252 7.16090104,10.2208423 7.04590977,10.2385035 C6.67439954,10.2649954 6.2918382,10.3157707 5.89821426,10.3908309 C5.50459033,10.4658911 5.15741038,10.565234 4.856664,10.6888627 C4.62668147,10.7859994 4.43429513,10.8102833 4.2794992,10.7617149 C4.12470327,10.7131465 4.03846112,10.5961426 4.02077016,10.4106997 C4.01192467,10.2517486 4.03182671,10.1347447 4.08047686,10.0596845 C4.12912701,9.98462423 4.24190521,9.88086606 4.41881484,9.74840683 C4.57803351,9.6159476 4.71292509,9.53426563 4.82349361,9.50335848 C4.93406213,9.47245132 5.02914963,9.46582846 5.10875897,9.48348969 C5.29451408,9.52764277 5.46036438,9.55634184 5.60631482,9.56958776 C5.75226527,9.58283368 5.88273417,9.58062606 5.99772543,9.56296483 C6.17463507,9.5453036 6.35817606,9.52764264 6.54835392,9.5099814 C6.73853177,9.49232017 6.93534079,9.47907445 7.13878687,9.47024383 C7.25377813,9.47024383 7.3112729,9.42167618 7.3112729,9.32453941 C7.32011838,9.23623326 7.32454105,9.12585222 7.32454105,8.99339299 C7.32454105,8.86093376 7.32011838,8.75055272 7.3112729,8.66224657 C7.3112729,8.60043226 7.2582008,8.55627985 7.15205502,8.529788 C6.95745443,8.49446554 6.83361954,8.44148264 6.78054665,8.37083772 C6.72747376,8.30902341 6.65671097,8.31343865 6.56825615,8.38408358 C6.28520074,8.60484896 6.00657224,8.76379765 5.73236231,8.86093442 C5.45815238,8.95807119 5.17510121,9.01546933 4.88320031,9.03313056 C4.76820905,9.04196118 4.66869887,9.02430021 4.5846668,8.98014713 C4.50063472,8.93599406 4.43871728,8.88521878 4.39891261,8.82781978 C4.35910794,8.77042078 4.34362858,8.71302264 4.35247406,8.65562364 C4.36131954,8.59822464 4.40112361,8.55627985 4.47188747,8.529788 C5.08222571,8.27370016 5.57314258,7.94255705 5.94465281,7.53634874 C6.31616304,7.13014044 6.54171944,6.70627726 6.62132878,6.26474649 C6.6567107,6.07047295 6.72526216,5.93139285 6.8269852,5.847502 C6.92870824,5.76361115 7.05033179,5.73491208 7.19185949,5.76140393 C7.39530557,5.80555701 7.54788784,5.88061611 7.64961088,5.9865835 C7.75133392,6.09255088 7.80882869,6.22059288 7.82209691,6.37071334 C7.83536514,6.5208338 7.80661775,6.68419774 7.7358539,6.86081005 C7.66509004,7.03742235 7.55894586,7.21403201 7.41741815,7.39064432 C7.32011785,7.51427293 7.27810244,7.59816252 7.29137066,7.6423156 C7.30463889,7.68646867 7.37761302,7.70412964 7.51029524,7.69529902 C8.20024281,7.66880718 8.73538643,7.66439194 9.11574214,7.68205317 C9.49609786,7.6997144 9.8012624,7.73062109 10.0312449,7.77477416 C10.2081546,7.81009663 10.3231441,7.85204142 10.376217,7.9006098 C10.4292899,7.94917819 10.4558259,8.00878395 10.4558259,8.07942887 C10.4469804,8.20305749 10.4138104,8.29136231 10.3563148,8.34434601 C10.2988191,8.3973297 10.1948863,8.42823639 10.0445131,8.437067 C9.83222152,8.44589762 9.59560843,8.4547281 9.33466672,8.46355872 C9.07372501,8.47238933 8.81499855,8.48563506 8.55847958,8.50329629 C8.47002477,8.50329629 8.43464337,8.54303346 8.45233433,8.622509 C8.4700253,8.71964577 8.48108198,8.83444205 8.48550472,8.96690128 C8.48992746,9.09936051 8.48771613,9.21415678 8.47887065,9.31129355 C8.47887065,9.41726094 8.52309739,9.47024383 8.61155221,9.47024383 C8.85038021,9.47907445 9.13343138,9.49452779 9.46071421,9.51660433 C9.78799703,9.53868087 10.0710482,9.57179518 10.3098762,9.61594826 C10.4602494,9.63360949 10.5663936,9.66010094 10.628312,9.6954234 C10.6902303,9.73074586 10.721189,9.79697448 10.721189,9.89411125 Z M15.5507979,8.99339299 C15.5331069,9.04637668 15.5132049,9.14792723 15.4910912,9.2980477 C15.4689775,9.44816816 15.4490755,9.62257019 15.4313845,9.82125904 C15.4136935,10.0199479 15.3982142,10.2296719 15.384946,10.4504372 C15.3716777,10.6712026 15.3584097,10.8809266 15.3451415,11.0796154 C15.3318733,11.2783043 15.3230279,11.4549139 15.3186052,11.6094497 C15.3141824,11.7639855 15.3163938,11.8677436 15.3252393,11.9207273 C15.3517757,12.2121376 15.3031263,12.437315 15.1792895,12.596266 C15.0554528,12.7552171 14.8741231,12.8302762 14.6352951,12.8214456 C14.3876216,12.8214456 14.1753333,12.755217 13.9984236,12.6227578 C13.9453507,12.5786047 13.7330624,12.5432827 13.3615521,12.5167909 C12.9900419,12.4902991 12.5168157,12.4858838 11.9418594,12.503545 C11.879941,12.503545 11.8180236,12.538867 11.7561052,12.6095119 C11.7030323,12.6801568 11.6344809,12.7221016 11.5504488,12.7353475 C11.4664167,12.7485935 11.3669066,12.7463858 11.2519153,12.7287246 C11.1457695,12.7110634 11.0528934,12.6448348 10.973284,12.5300368 C10.8936747,12.4152388 10.8538706,12.2165529 10.8538706,11.9339732 C10.8450251,11.227524 10.8339684,10.6314664 10.8207002,10.1457825 C10.807432,9.66009869 10.7786846,9.3201251 10.7344572,9.12585156 C10.6725388,8.83444125 10.6747502,8.57835725 10.7410913,8.35759186 C10.8074324,8.13682648 10.9334786,7.97787779 11.1192337,7.88074102 C11.2253795,7.82775733 11.3447917,7.81009636 11.477474,7.82775759 C11.6101562,7.84541882 11.6986097,7.88074075 11.7428371,7.93372445 C11.8224464,8.0220306 11.9064772,8.06618301 11.994932,8.06618301 C12.4814335,8.0573524 12.8993763,8.0683905 13.2487728,8.09929766 C13.5981693,8.13020481 13.8170917,8.15890388 13.9055465,8.18539572 C14.0028468,8.21188757 14.0979343,8.21630281 14.1908119,8.19864158 C14.2836895,8.18098035 14.3699316,8.13682794 14.4495409,8.06618301 C14.5556867,7.98670748 14.6839443,7.95138554 14.8343175,7.96021616 C14.9846907,7.96904677 15.1350616,8.0352754 15.2854348,8.15890401 C15.4534989,8.27370201 15.5574318,8.38187543 15.5972365,8.4834275 C15.6370411,8.58497958 15.6215618,8.75496638 15.5507979,8.99339299 Z M14.2372504,9.31129355 C14.2372504,9.12585063 14.148797,9.02430008 13.9718873,9.00663885 C13.7949777,8.98897762 13.6313387,8.97573189 13.4809655,8.96690128 C13.3305924,8.95807066 13.1824328,8.95365542 13.0364823,8.95365542 C12.8905319,8.95365542 12.7379496,8.95807066 12.5787309,8.96690128 C12.4195122,8.97573189 12.2426053,8.98897762 12.0480047,9.00663885 C11.9418589,9.01546946 11.8887868,9.0728676 11.8887868,9.17883498 C11.8799413,9.38193914 11.8755186,9.59166311 11.8755186,9.80801318 C11.8755186,10.0243633 11.8755186,10.2362948 11.8755186,10.4438143 C11.8755186,10.6513338 11.8799413,10.847812 11.8887868,11.0332549 C11.8976323,11.2186979 11.9064776,11.3776466 11.9153231,11.5101058 C11.9153231,11.5984119 11.9683952,11.6425643 12.074541,11.6425643 C12.6494973,11.6778868 13.211177,11.6778868 13.7595968,11.6425643 C13.90997,11.6337337 14.0094802,11.5984118 14.0581303,11.5365975 C14.1067805,11.4747832 14.1399505,11.3732326 14.1576415,11.2319428 C14.184178,11.0288386 14.1996573,10.7683394 14.2040801,10.4504372 C14.2085028,10.1325351 14.2195595,9.75282432 14.2372504,9.31129355 Z" id="path-6"></path>
        <filter x="-2.4%" y="-3.7%" width="104.8%" height="114.7%" filterUnits="objectBoundingBox" id="filter-7">
            <feOffset dx="0" dy="0.6" in="SourceAlpha" result="shadowOffsetOuter1"></feOffset>
            <feColorMatrix values="0 0 0 0 0.832116168   0 0 0 0 0.378905794   0 0 0 0 0.259639906  0 0 0 1 0" type="matrix" in="shadowOffsetOuter1"></feColorMatrix>
        </filter>
    </defs>
    <g id="小徽章_知_亮" stroke="none" stroke-width="1" fill="none" fill-rule="evenodd">
        <g id="编组-15" transform="translate(0.500000, 0.000000)">
            <path d="M9.25,1.5669873 C9.40470054,1.4776709 9.59529946,1.4776709 9.75,1.5669873 L17.9772413,6.3169873 C18.1319419,6.4063037 18.2272413,6.57136721 18.2272413,6.75 L18.2272413,16.25 C18.2272413,16.4286328 18.1319419,16.5936963 17.9772413,16.6830127 L9.75,21.4330127 C9.59529946,21.5223291 9.40470054,21.5223291 9.25,21.4330127 L1.02275866,16.6830127 C0.868058126,16.5936963 0.772758664,16.4286328 0.772758664,16.25 L0.772758664,6.75 C0.772758664,6.57136721 0.868058126,6.4063037 1.02275866,6.3169873 L9.25,1.5669873 Z M9.5,2.57735027 L1.77275866,7.03867513 L1.77275866,15.9613249 L9.5,20.4226497 L17.2272413,15.9613249 L17.2272413,7.03867513 L9.5,2.57735027 Z" id="多边形" fill-opacity="0.068758" fill="#000000" fill-rule="nonzero"></path>
            <g id="多边形">
                <use fill="url(#linearGradient-1)" fill-rule="evenodd" xlink:href="#path-2"></use>
                <use fill="black" fill-opacity="1" filter="url(#filter-3)" xlink:href="#path-2"></use>
            </g>
            <path d="M9.25,0.566987298 C9.40470054,0.477670901 9.59529946,0.477670901 9.75,0.566987298 L17.9772413,5.3169873 C18.1319419,5.4063037 18.2272413,5.57136721 18.2272413,5.75 L18.2272413,15.25 C18.2272413,15.4286328 18.1319419,15.5936963 17.9772413,15.6830127 L9.75,20.4330127 C9.59529946,20.5223291 9.40470054,20.5223291 9.25,20.4330127 L1.02275866,15.6830127 C0.868058126,15.5936963 0.772758664,15.4286328 0.772758664,15.25 L0.772758664,5.75 C0.772758664,5.57136721 0.868058126,5.4063037 1.02275866,5.3169873 L9.25,0.566987298 Z M9.5,1.57735027 L1.77275866,6.03867513 L1.77275866,14.9613249 L9.5,19.4226497 L17.2272413,14.9613249 L17.2272413,6.03867513 L9.5,1.57735027 Z" id="多边形" fill="url(#linearGradient-4)" fill-rule="nonzero"></path>
            <g id="知" fill-rule="nonzero" transform="translate(9.427898, 9.839590) rotate(-1.000000) translate(-9.427898, -9.839590) ">
                <use fill="black" fill-opacity="1" filter="url(#filter-7)" xlink:href="#path-6"></use>
                <use fill="url(#linearGradient-5)" xlink:href="#path-6"></use>
            </g>
        </g>
    </g>
</svg>